# xmcd CD database file
#
# Track frame offsets:
#	150
#	16927
#	34825
#	50550
#	68085
#	79135
#	96055
#	116397
#	124487
#	139322
#	155315
#	184742
#	202460
#	233377
#
# Disc length: 3501 seconds
#
# Revision: 35
# Processed by: cddbd v1.5.2PL0 Copyright (c) Steve Scherf et al.
# Submitted via: CDex 1.79
#
DISCID=be0dab0e
DTITLE=Janis Joplin - Pearl
DYEAR=1971
DGENRE=Rock
TTITLE0=Move Over
TTITLE1=Cry Baby
TTITLE2=A Woman Left Lonely
TTITLE3=Half Moon
TTITLE4=Buried Alive In The Blues
TTITLE5=My Baby
TTITLE6=Me And Bobby McGee
TTITLE7=Mercedes Benz
TTITLE8=Trust Me
TTITLE9=Get It While You Can
TTITLE10=Tell Mama (Live in Calgary, July 4 1970)
TTITLE11=Little Girl Blue (Live in Calgary, July 4 1970)
TTITLE12=Try (Just A Little Bit Harder) (Live in Calgary, July 4 1970)
TTITLE13=Cry Baby (Live in Calgary, July 4 1970)
EXTD=YEAR: 1971
EXTT0=
EXTT1=
EXTT2=
EXTT3=
EXTT4=
EXTT5=
EXTT6=
EXTT7=
EXTT8=
EXTT9=
EXTT10=
EXTT11=
EXTT12=
EXTT13=
PLAYORDER=
